<svg id="Layer_1" data-name="Layer 1" xmlns="http://www.w3.org/2000/svg" viewBox="0 0 16 16"><defs><style>.cls-1{fill:#219231;}.cls-2{fill:#2e9e32;}</style></defs><polygon class="cls-1" points="6.79 6.13 9.59 4.82 10.9 7.62 8.1 8.93 8.96 6.56 6.79 6.13"/><path class="cls-2" d="M14.58,3.45a7.93,7.93,0,0,0-3.87-3A7.79,7.79,0,0,0,8,0H8A8,8,0,0,0,3.45,1.42a7.93,7.93,0,0,0-3,3.87A7.79,7.79,0,0,0,0,8H0a8,8,0,0,0,1.42,4.55,7.93,7.93,0,0,0,3.87,3A7.73,7.73,0,0,0,8,16H8a8,8,0,0,0,4.55-1.42l.39-.29h0v0a7.91,7.91,0,0,0,2.52-3.46h0l0-.1h0l0-.1h0A7.9,7.9,0,0,0,16,8h0A8,8,0,0,0,14.58,3.45ZM14.29,8a6.14,6.14,0,0,1-.38,2.13h0a6.47,6.47,0,0,1-.7,1.39l-8.27-3L4,11.07l6.89,2.49A6.26,6.26,0,0,1,8,14.29H8a6.1,6.1,0,0,1-2.13-.38A6.28,6.28,0,0,1,1.71,8h0a6.1,6.1,0,0,1,.38-2.13,6.26,6.26,0,0,1,.59-1.22l8.22,3,.92-2.54-7-2.51A6.32,6.32,0,0,1,8,1.71H8a6.1,6.1,0,0,1,2.13.38,6.25,6.25,0,0,1,3,2.33A6.32,6.32,0,0,1,14.29,8Z"/><polygon class="cls-1" points="7.73 7.21 4.93 8.53 4.08 11.01 6.88 9.69 7.73 7.21"/></svg>