<?xml version="1.0" standalone="no"?>
<!DOCTYPE svg PUBLIC "-//W3C//DTD SVG 20010904//EN"
 "http://www.w3.org/TR/2001/REC-SVG-20010904/DTD/svg10.dtd">
<svg version="1.0" xmlns="http://www.w3.org/2000/svg"
 width="200.000000pt" height="200.000000pt" viewBox="0 0 200.000000 200.000000"
 preserveAspectRatio="xMidYMid meet">
<metadata>
Created by potrace 1.14, written by Peter Selinger 2001-2017
</metadata>
<g transform="translate(0.000000,200.000000) scale(0.100000,-0.100000)"
fill="#000000" stroke="none">
<path d="M1 1558 l0 -443 19 90 c18 83 66 225 76 225 10 0 124 -81 124 -88 0
-4 -11 -42 -25 -84 -31 -97 -48 -234 -40 -318 8 -79 32 -191 51 -236 8 -18 14
-38 14 -43 0 -9 -112 -91 -124 -91 -10 0 -58 142 -76 225 l-19 90 0 -442 -1
-443 408 1 407 0 -75 20 c-156 41 -339 149 -454 267 l-48 50 60 41 c34 23 65
41 69 41 5 0 25 -16 44 -36 83 -87 225 -169 361 -208 l83 -24 3 -76 3 -76 129
0 129 0 3 76 3 76 83 24 c136 39 278 121 361 208 19 20 39 36 44 36 4 0 35
-18 69 -41 l60 -41 -58 -60 c-113 -114 -281 -211 -439 -255 l-80 -22 418 0
417 -1 0 1000 0 1000 -417 -1 -418 0 80 -22 c158 -44 326 -141 439 -255 l58
-60 -60 -41 c-34 -23 -65 -41 -69 -41 -5 0 -25 16 -44 36 -83 87 -225 169
-361 208 l-83 24 -3 76 -3 76 -129 0 -129 0 -3 -77 -3 -77 -90 -26 c-138 -40
-271 -116 -354 -204 -19 -20 -39 -36 -44 -36 -4 0 -35 18 -69 41 l-60 41 48
50 c115 118 298 226 454 267 l75 20 -407 0 -408 1 1 -442z m1389 -186 l0 -57
-120 -120 c-66 -66 -120 -123 -120 -127 0 -5 25 -8 55 -8 l55 0 0 -60 0 -60
-117 0 -118 0 -122 -122 c-68 -68 -123 -126 -123 -130 0 -5 137 -8 305 -8
l305 0 0 -55 0 -55 -400 0 -400 0 0 58 0 57 120 120 c66 66 120 123 120 127 0
5 -25 8 -55 8 l-55 0 0 60 0 60 118 0 117 0 125 125 124 125 -304 2 -305 3 -3
58 -3 57 401 0 400 0 0 -58z m520 1 c61 -163 84 -354 61 -514 -12 -79 -60
-247 -80 -278 -7 -10 -21 -5 -70 28 -33 23 -61 45 -61 49 0 4 11 42 25 84 50
157 50 359 -1 520 -16 50 -22 84 -16 90 14 14 106 77 114 77 4 1 16 -25 28
-56z"/>
</g>
</svg>
