<svg width="313" height="88" viewBox="0 0 313 88" fill="none" xmlns="http://www.w3.org/2000/svg">
<path d="M213.93 28.23H220.6C227.65 28.23 230.6 33.23 230.8 38.3C231 43.55 228.06 49 220.69 49H214L213.93 28.23ZM220.58 22.4L207.83 22.45L208 54.92L220.75 54.86C232.11 54.86 237.09 46.5 236.92 38.29C236.7 30.27 231.71 22.36 220.58 22.4ZM187.11 27.45C194.76 27.45 197.84 33.53 197.77 39C197.7 44.47 194.85 50.1 187.2 50.13C179.55 50.16 176.65 44.47 176.49 39.13C176.33 33.79 179.46 27.49 187.11 27.45ZM187.11 21.89C175.89 21.89 170.46 30.54 170.49 39.07C170.52 47.6 175.84 55.79 187.26 55.74C198.68 55.69 203.77 47.28 203.83 38.89C203.89 30.5 198.26 21.84 187.08 21.89H187.11ZM156 28.37C159.85 28.37 161.58 30.94 161.59 33.54C161.6 36.14 159.94 38.74 156.05 38.76H146.72V28.37H156ZM169.42 54.66L159.55 43.66C165.71 42.39 167.73 37.88 167.71 33.43C167.71 27.81 163.63 22.73 155.98 22.72C150.83 22.72 145.69 22.72 140.54 22.72L140.67 55.23H146.79V44.37H152.68L162.18 55.18H169.46L169.42 54.66ZM135.86 49.18L117.64 49.26V41.93L135.21 41.86V36.15L117.63 36.23V28.76L135.86 28.68V22.75L111.56 22.85C111.56 33.65 111.65 44.5 111.7 55.31L136 55.21L135.86 49.18ZM82.86 28.72L98.86 28.65L82.61 51.9V55.43L107.98 55.33V49.53L91.14 49.6L107.88 25.74V22.86L82.88 22.96L82.86 28.72Z" fill="url(#paint0_linear_101_10)"/>
<path d="M261.53 42.87L249.47 42.92L255.47 29.08L261.53 42.87ZM266.77 54.68H273.45L258.75 22.28H252.08L237.65 54.79H244.28L247 48.63L264 48.56L266.77 54.68Z" fill="url(#paint1_linear_101_10)"/>
<path d="M289.48 27C297.13 27 300.22 33.07 300.15 38.55C300.08 43.88 297.22 49.64 289.57 49.67C281.92 49.7 279.02 44.01 278.86 38.67C278.7 33.33 281.83 27.07 289.48 27ZM289.48 21.43C278.25 21.48 272.82 30.08 272.85 38.61C272.88 47.14 278.21 55.33 289.62 55.28C301.03 55.23 306.14 46.82 306.2 38.43C306.26 30.04 300.63 21.42 289.46 21.47L289.48 21.43Z" fill="url(#paint2_linear_101_10)"/>
<path d="M33.84 29.95L45.39 24.52L50.81 36.07L39.27 41.49L42.8 31.7L33.84 29.95Z" fill="#219231"/>
<path d="M66 18.89C62.9621 14.5006 58.9047 10.9136 54.1759 8.43691C49.4471 5.96017 44.1881 4.66757 38.85 4.66999V4.66999C30.0978 4.66999 21.7042 8.14676 15.5155 14.3355C9.32675 20.5242 5.84998 28.9178 5.84998 37.67V37.67C5.84998 46.4221 9.32675 54.8158 15.5155 61.0045C21.7042 67.1932 30.0978 70.67 38.85 70.67V70.67C45.5542 70.6536 52.0944 68.5956 57.6 64.77C58.15 64.39 58.68 63.98 59.21 63.56H59.27V63.48C63.977 59.7724 67.5803 54.8481 69.69 49.24L69.84 48.82L70 48.4C71.2019 44.9467 71.8171 41.3165 71.82 37.66C71.8312 30.9575 69.8011 24.4104 66 18.89V18.89ZM64.8 37.65C64.8 40.6438 64.2788 43.6148 63.26 46.43C62.5299 48.4545 61.5489 50.3795 60.34 52.16L26.24 39.89L22.48 50.32L50.89 60.56C47.1916 62.516 43.0738 63.5454 38.89 63.56C35.4835 63.5639 32.1096 62.8969 28.9609 61.5969C25.8122 60.2969 22.9504 58.3895 20.5388 55.9836C18.1273 53.5776 16.2133 50.7202 14.906 47.5745C13.5988 44.4288 12.9239 41.0565 12.92 37.65V37.65C12.9306 32.7656 14.3169 27.9829 16.92 23.85L50.81 36.07L54.57 25.63L25.8 15.26C29.7479 12.9617 34.2318 11.7442 38.8 11.73V11.73C42.206 11.726 45.5794 12.3932 48.7276 13.6933C51.8757 14.9934 54.7368 16.9009 57.1476 19.307C59.5583 21.7131 61.4714 24.5706 62.7776 27.7162C64.0837 30.8618 64.7574 34.234 64.76 37.64L64.8 37.65Z" fill="#2E9E32"/>
<path d="M37.74 34.38L26.19 39.81L22.67 50.04L34.22 44.61L37.74 34.38Z" fill="#219231"/>
<path d="M295.22 78.29H286.67L290.94 68.55L295.22 78.29ZM289.68 66.29L281.59 84.29H284L285.76 80.29H296.1L297.88 84.29H300.3L292.21 66.29H289.68ZM274.01 68.29V84.29H276.23V68.29H282.39V66.29H267.85V68.29H274.01ZM253.01 84.29H266.11V82.18H255.26V76.07H265.26V74H255.26V68.34H265.72V66.28H253L253.01 84.29ZM237.01 76.04H242.76C244.76 76.04 247.01 76.97 247.04 79.24C247.04 81.69 244.53 82.18 242.65 82.18H237.01V76.04ZM237.01 68.28H242.65C244.87 68.28 246.49 69.28 246.49 71.28C246.49 73.28 245 74 242.82 74H237.07L237.01 68.28ZM234.76 66.28V84.28H242.65C246.06 84.28 249.28 83.15 249.28 79.28C249.275 78.3196 248.962 77.3861 248.388 76.616C247.814 75.8459 247.009 75.2796 246.09 75C246.871 74.7429 247.55 74.2457 248.031 73.5795C248.513 72.9132 248.771 72.1119 248.77 71.29C248.77 67.86 245.99 66.29 242.71 66.29L234.76 66.28Z" fill="url(#paint3_linear_101_10)"/>
<defs>
<linearGradient id="paint0_linear_101_10" x1="159.767" y1="21.8898" x2="159.767" y2="55.7402" gradientUnits="userSpaceOnUse">
<stop offset="0.401042" stop-color="white"/>
<stop offset="1" stop-color="#2E9E32"/>
</linearGradient>
<linearGradient id="paint1_linear_101_10" x1="255.55" y1="22.28" x2="255.55" y2="54.79" gradientUnits="userSpaceOnUse">
<stop offset="0.401042" stop-color="white"/>
<stop offset="1" stop-color="#2E9E32"/>
</linearGradient>
<linearGradient id="paint2_linear_101_10" x1="289.525" y1="21.43" x2="289.525" y2="55.2802" gradientUnits="userSpaceOnUse">
<stop offset="0.401042" stop-color="white"/>
<stop offset="1" stop-color="#2E9E32"/>
</linearGradient>
<linearGradient id="paint3_linear_101_10" x1="267.53" y1="66.28" x2="267.53" y2="84.29" gradientUnits="userSpaceOnUse">
<stop offset="0.463542" stop-color="white"/>
<stop offset="1" stop-color="#2E9E32"/>
</linearGradient>
</defs>
</svg>
