<svg id="Layer_1" data-name="Layer 1" xmlns="http://www.w3.org/2000/svg" viewBox="0 0 388.46 148.46"><defs><style>.cls-1{fill:#fff;}.cls-2{fill:#219231;}.cls-3{fill:#2e9e32;}</style></defs><path class="cls-1" d="M251.71,57.29l6.68,0c7.06,0,10.05,5,10.21,10.07.16,5.29-2.74,10.69-10.12,10.72l-6.69,0Zm6.66-5.83-12.77,0,.14,32.5L258.5,84c11.37,0,16.35-8.38,16.18-16.6C274.51,59.33,269.51,51.42,258.37,51.46Zm-33.49,5.06c7.66,0,10.75,6.08,10.68,11.56S232.63,79.19,225,79.22s-10.56-5.67-10.72-11S217.22,56.55,224.88,56.52Zm0-5.57c-11.24,0-16.68,8.66-16.64,17.2S213.58,84.88,225,84.83,241.53,76.37,241.59,68,236,50.9,224.86,51Zm-31.07,6.49c3.85,0,5.58,2.57,5.59,5.17s-1.65,5.21-5.55,5.22l-9.33,0,0-10.4Zm13.43,26.31-9.89-11.06c6.17-1.27,8.2-5.79,8.18-10.24,0-5.62-4.08-10.71-11.74-10.72-5.16,0-10.31,0-15.46,0l.13,32.54,6.13,0,0-10.86,5.89,0,9.51,10.82,7.29,0Zm-33.58-5.48-18.24.07,0-7.33L173,70.94l0-5.71-17.59.07,0-7.47,18.24-.08,0-5.94-24.32.1c0,10.81.09,21.68.13,32.49l24.32-.1Zm-53-20.49,16.06-.06L120.32,81l0,3.53,25.39-.1,0-5.81-16.85.07L145.61,54.8l0-2.88-25,.11Z"/><path class="cls-1" d="M299.34,72l-12.07,0,6-13.86Zm5.25,11.82,6.68,0L296.56,51.31l-6.68,0L275.44,83.89l6.64,0,2.76-6.14,17-.07Z"/><path class="cls-1" d="M327.31,56.1c7.66,0,10.75,6.08,10.67,11.56S335.06,78.77,327.4,78.8s-10.56-5.67-10.72-11S319.65,56.13,327.31,56.1Zm0-5.57c-11.24,0-16.68,8.66-16.64,17.2S316,84.46,327.42,84.42,344,76,344,67.55,338.47,50.49,327.29,50.53Z"/><polygon class="cls-2" points="71.56 59.05 83.11 53.62 88.55 65.17 76.99 70.61 80.53 60.8 71.56 59.05"/><path class="cls-3" d="M103.7,48A33,33,0,0,0,76.57,33.76h0a33,33,0,0,0-33,33h0a33,33,0,0,0,33,33h0a33,33,0,0,0,18.76-5.86c.55-.38,1.09-.79,1.62-1.21l0,0,0-.09a32.85,32.85,0,0,0,10.39-14.26h0l.15-.43h0l.15-.42h0a33,33,0,0,0,1.81-10.74h0A33.06,33.06,0,0,0,103.7,48Zm-1.2,18.77A26,26,0,0,1,101,75.54h0A26,26,0,0,1,98,81.28L64,69,60.2,79.44,88.63,89.69a26,26,0,0,1-12.06,3h0a26.06,26.06,0,0,1-8.79-1.54A26,26,0,0,1,50.63,66.76h0A25.83,25.83,0,0,1,52.18,58a26.25,26.25,0,0,1,2.45-5L88.54,65.17l3.77-10.44L63.52,44.36a26.11,26.11,0,0,1,13-3.54h0a26.16,26.16,0,0,1,8.79,1.55A25.94,25.94,0,0,1,102.5,66.75Z"/><polygon class="cls-2" points="75.46 63.49 63.91 68.92 60.39 79.15 71.94 73.72 75.46 63.49"/><path class="cls-1" d="M329.89,106.38h-8.31l4.16-9.45Zm-5.38-11.65-7.85,17.51H319l1.7-3.86h10l1.72,3.86h2.35L327,94.73Zm-15.2,2v15.56h2.15V96.68h6v-2h-14.1v2ZM289,112.24h12.71v-2.08H291.1v-5.93h9.73v-2H291.1V96.73h10.16v-2H289Zm-15.5-8H279c1.9,0,4.12.9,4.15,3.11,0,2.37-2.43,2.85-4.25,2.85h-5.48Zm0-7.52h5.48c2.15,0,3.72,1,3.72,3s-1.52,2.6-3.62,2.6h-5.58Zm-2.17-2v17.51h7.65c3.3,0,6.43-1.1,6.43-4.83a4.37,4.37,0,0,0-3.16-4.18,3.78,3.78,0,0,0,2.6-3.6c0-3.32-2.7-4.9-5.87-4.9Z"/></svg>
